<?xml version="1.0" standalone="no"?>
<!DOCTYPE svg PUBLIC "-//W3C//DTD SVG 20010904//EN"
 "http://www.w3.org/TR/2001/REC-SVG-20010904/DTD/svg10.dtd">
<svg version="1.0" xmlns="http://www.w3.org/2000/svg"
 width="340.000000pt" height="270.000000pt" viewBox="0 0 340.000000 270.000000"
 preserveAspectRatio="xMidYMid meet">

<g transform="translate(0.000000,270.000000) scale(0.100000,-0.100000)"
fill="#000000" stroke="none">
<path d="M1340 2599 l0 -40 43 3 c41 3 42 4 45 41 l3 37 -45 0 -46 0 0 -41z"/>
<path d="M1828 2624 c-32 -17 -58 -62 -58 -99 0 -22 -4 -25 -35 -25 -46 0 -65
-30 -35 -60 11 -11 31 -20 45 -20 25 0 25 -1 25 -89 l0 -90 -42 -3 c-40 -3
-43 -5 -43 -33 l0 -30 155 0 155 0 0 30 0 30 -73 3 -73 3 3 92 3 91 53 -1 c71
-2 102 10 102 41 0 30 -16 36 -96 36 -61 0 -64 1 -64 24 0 36 15 41 110 41 84
0 85 0 85 25 0 16 -8 29 -25 37 -35 18 -158 16 -192 -3z"/>
<path d="M754 2596 c-13 -34 0 -51 44 -54 l42 -3 0 -149 0 -149 -42 -3 c-40
-3 -43 -5 -43 -33 l0 -30 198 -3 198 -2 -3 92 -3 93 -30 0 c-30 0 -30 -1 -33
-57 l-3 -58 -79 0 -80 0 0 149 0 150 43 3 c36 3 43 7 45 27 2 13 -2 28 -10 32
-7 5 -64 9 -126 9 -89 0 -114 -3 -118 -14z"/>
<path d="M2205 2491 c-81 -38 -123 -116 -105 -195 11 -51 37 -85 86 -114 35
-20 49 -23 134 -19 111 4 154 19 158 58 4 37 -15 41 -101 22 -43 -9 -88 -13
-109 -9 -37 7 -88 40 -88 57 0 5 64 9 150 9 l150 0 0 40 c0 126 -151 209 -275
151z m145 -71 c8 -5 24 -18 34 -29 l19 -21 -113 0 c-106 0 -112 1 -99 18 7 9
14 19 15 20 2 2 20 10 41 17 36 13 70 11 103 -5z"/>
<path d="M1263 2493 c-7 -2 -13 -16 -13 -29 0 -28 36 -47 79 -42 l26 3 3 -92
3 -92 -68 -3 c-60 -3 -68 -5 -71 -24 -6 -40 16 -45 184 -42 l159 3 0 30 c0 30
-1 30 -65 35 l-65 5 -3 128 -3 127 -77 -1 c-42 0 -83 -3 -89 -6z"/>
<path d="M280 2040 c0 -13 7 -20 20 -20 13 0 20 7 20 20 0 13 -7 20 -20 20
-13 0 -20 -7 -20 -20z"/>
<path d="M1985 2050 c-10 -16 4 -30 31 -30 23 0 24 -2 24 -74 l0 -75 -32 -3
c-22 -2 -34 -9 -36 -20 -3 -16 6 -18 83 -18 77 0 86 2 83 18 -2 11 -13 17 -33
17 l-30 1 -3 97 -3 97 -39 0 c-21 0 -42 -4 -45 -10z"/>
<path d="M1354 2021 c-4 -17 -13 -31 -20 -31 -19 0 -18 -29 1 -36 9 -4 15 -19
15 -39 0 -83 47 -113 125 -81 31 13 35 18 25 31 -9 11 -17 12 -32 4 -10 -6
-31 -9 -46 -7 -24 3 -27 8 -30 45 l-3 42 43 3 c31 2 44 8 46 21 3 14 -4 17
-42 17 -41 0 -45 2 -48 27 -4 38 -27 41 -34 4z"/>
<path d="M242 1973 c2 -10 13 -19 26 -21 18 -3 22 -10 22 -43 0 -34 -3 -39
-22 -39 -30 0 -52 -15 -44 -29 9 -13 162 -15 170 -2 9 14 -22 34 -44 28 -18
-5 -20 0 -20 59 l0 64 -46 0 c-38 0 -45 -3 -42 -17z"/>
<path d="M466 1971 c-26 -29 -12 -58 32 -71 20 -5 45 -10 55 -10 11 0 17 -6
15 -12 -7 -19 -63 -22 -81 -4 -24 24 -37 19 -37 -13 0 -27 3 -30 49 -36 62 -8
111 13 111 49 0 31 -19 45 -70 54 -23 4 -42 12 -43 17 -3 17 43 17 68 1 33
-22 35 -21 35 14 0 30 0 30 -58 30 -45 0 -63 -4 -76 -19z"/>
<path d="M870 1975 c0 -8 5 -17 10 -20 17 -10 12 -83 -6 -93 -26 -15 -6 -32
37 -32 27 0 39 4 39 14 0 8 -4 18 -10 21 -5 3 -10 22 -10 40 0 36 28 62 56 51
17 -7 20 -92 2 -98 -23 -8 4 -28 38 -28 33 0 48 20 24 35 -5 3 -10 26 -10 50
0 62 -16 74 -100 74 -53 0 -70 -4 -70 -14z"/>
<path d="M1115 1965 c-72 -71 22 -178 114 -130 55 28 62 84 18 133 -30 32 -99
31 -132 -3z m103 -21 c26 -18 28 -41 5 -66 -31 -34 -93 -15 -93 29 0 46 47 66
88 37z"/>
<path d="M1765 1979 c-11 -17 4 -24 53 -24 25 0 47 -5 49 -11 2 -8 -11 -12
-38 -12 -78 -1 -118 -78 -53 -102 26 -10 152 -2 160 11 2 5 -3 13 -13 20 -14
8 -18 20 -15 45 3 21 -2 44 -12 59 -14 22 -24 25 -71 25 -29 0 -57 -5 -60 -11z
m97 -94 c2 -14 -46 -29 -68 -21 -18 7 -18 8 1 22 22 16 65 15 67 -1z"/>
<path d="M2165 1979 c-4 -5 0 -18 8 -27 8 -9 20 -41 27 -69 14 -64 41 -73 60
-20 l11 32 14 -32 c21 -50 51 -45 59 10 4 23 13 55 21 71 22 41 19 46 -25 46
-28 0 -40 -4 -40 -14 0 -8 5 -18 10 -21 12 -8 13 -45 1 -45 -5 0 -12 11 -15
25 -8 32 -33 32 -48 0 -10 -22 -13 -24 -21 -10 -6 11 -4 22 7 34 9 10 13 21 9
24 -10 11 -71 8 -78 -4z"/>
<path d="M2420 1975 c-14 -17 -11 -18 49 -19 26 -1 46 -6 48 -13 3 -9 -9 -13
-40 -13 -70 0 -105 -61 -54 -94 30 -20 167 -11 167 11 0 7 -7 16 -15 19 -10 4
-15 20 -15 49 0 26 -6 50 -16 59 -21 21 -107 22 -124 1z m100 -89 c0 -14 -29
-26 -62 -26 -20 0 -24 26 -5 33 26 11 67 7 67 -7z"/>
<path d="M2610 1981 c0 -5 18 -41 40 -80 33 -58 39 -75 30 -91 -7 -13 -21 -20
-41 -20 -24 0 -30 -4 -27 -17 5 -26 105 -32 115 -7 4 10 2 19 -5 22 -12 4 58
155 78 167 5 3 10 13 10 21 0 10 -12 14 -40 14 -28 0 -40 -4 -40 -14 0 -8 4
-18 10 -21 9 -6 -18 -75 -30 -75 -3 0 -14 16 -25 36 -15 28 -16 37 -6 44 8 4
10 13 7 19 -9 13 -76 15 -76 2z"/>
<path d="M2866 1974 c-35 -34 -8 -69 60 -80 26 -4 43 -11 41 -18 -6 -18 -56
-19 -84 -1 -28 19 -47 9 -41 -21 5 -26 87 -41 128 -24 58 24 47 85 -18 95 -54
9 -64 14 -57 25 9 15 52 12 69 -6 20 -19 36 -10 36 22 0 23 -3 24 -59 24 -41
0 -65 -5 -75 -16z"/>
<path d="M70 1691 c-5 -11 -10 -44 -10 -73 0 -77 -8 -98 -36 -98 -21 0 -24 -5
-24 -40 0 -36 2 -40 26 -40 22 0 25 -3 20 -22 -3 -13 -6 -33 -6 -45 0 -16 -6
-23 -20 -23 -17 0 -20 -7 -20 -40 0 -28 4 -40 15 -40 11 0 15 -19 17 -92 3
-88 4 -93 26 -96 36 -5 52 15 52 67 0 25 3 63 6 84 6 33 10 37 35 37 l29 0 -6
-69 c-9 -94 -1 -123 33 -119 34 4 41 19 48 111 6 70 9 77 28 77 35 0 49 15 45
46 -2 23 -9 30 -30 32 -26 3 -28 7 -28 48 0 42 1 44 29 44 36 0 55 22 47 55
-5 20 -13 25 -38 25 l-31 0 7 81 c7 89 0 109 -40 109 -32 0 -36 -11 -43 -104
-6 -80 -6 -81 -34 -84 l-28 -3 2 83 c2 46 -1 89 -5 96 -11 19 -54 14 -66 -7z
m120 -280 c0 -45 -10 -61 -36 -61 -22 0 -24 4 -24 45 0 43 1 45 30 45 26 0 30
-3 30 -29z"/>
<path d="M561 1658 c-19 -12 -46 -45 -60 -73 -34 -65 -42 -226 -16 -305 57
-172 241 -186 316 -25 15 32 19 64 19 156 0 103 -3 120 -25 165 -39 78 -65 97
-138 102 -52 3 -67 0 -96 -20z m135 -75 c32 -32 44 -80 44 -174 0 -107 -17
-155 -64 -174 -73 -31 -118 25 -124 158 -7 133 29 207 100 207 14 0 34 -8 44
-17z"/>
<path d="M1050 1658 c-19 -13 -45 -45 -59 -73 -24 -45 -26 -60 -26 -176 0
-122 1 -127 30 -174 56 -90 126 -116 207 -76 78 37 106 106 107 257 1 104 -1
116 -27 165 -37 71 -79 99 -147 99 -37 0 -61 -6 -85 -22z m138 -80 c33 -36 42
-73 42 -169 0 -95 -21 -159 -55 -173 -54 -20 -96 1 -121 61 -16 38 -18 172 -4
225 20 71 95 101 138 56z"/>
<path d="M1540 1658 c-19 -13 -45 -45 -59 -73 -22 -42 -26 -65 -29 -161 -3
-97 -1 -118 18 -163 68 -157 235 -161 306 -6 21 43 24 66 24 161 0 103 -2 116
-28 165 -37 71 -79 99 -147 99 -37 0 -61 -6 -85 -22z m138 -80 c32 -36 42 -72
42 -163 0 -105 -20 -162 -63 -180 -46 -19 -82 -2 -106 49 -26 52 -29 197 -7
250 27 64 94 86 134 44z"/>
<path d="M2029 1657 c-18 -12 -46 -46 -61 -76 -26 -49 -28 -62 -28 -165 0 -95
3 -118 24 -161 73 -159 247 -148 311 18 14 36 16 69 13 159 -3 103 -6 117 -32
162 -16 26 -43 57 -60 67 -45 27 -124 25 -167 -4z m139 -79 c32 -36 42 -72 42
-163 0 -129 -29 -185 -95 -185 -66 0 -95 56 -95 185 0 124 31 185 95 185 20 0
39 -8 53 -22z"/>
<path d="M2519 1657 c-20 -13 -46 -45 -61 -76 -26 -50 -28 -64 -28 -165 0 -95
4 -118 24 -161 71 -155 238 -151 306 6 19 45 21 66 18 163 -3 96 -7 119 -29
161 -34 67 -77 95 -144 95 -37 0 -62 -6 -86 -23z m138 -79 c31 -35 43 -83 43
-171 0 -97 -25 -160 -68 -174 -77 -26 -122 39 -122 178 0 128 31 189 95 189
20 0 39 -8 52 -22z"/>
<path d="M3009 1657 c-20 -13 -46 -45 -61 -76 -26 -50 -28 -64 -28 -165 0 -95
4 -118 24 -161 68 -147 225 -153 298 -11 27 51 38 224 18 289 -16 55 -58 115
-91 133 -43 22 -120 18 -160 -9z m123 -68 c57 -31 80 -217 37 -305 -35 -74
-107 -78 -146 -9 -19 34 -23 55 -23 138 0 54 5 108 11 120 32 61 74 81 121 56z"/>
<path d="M1844 1069 c-4 -7 0 -17 9 -24 10 -7 17 -19 17 -27 0 -12 -9 -15 -44
-11 -38 5 -48 2 -70 -20 -37 -37 -36 -97 1 -127 23 -18 36 -20 92 -16 36 3 72
5 79 5 17 1 15 31 -3 31 -11 0 -15 20 -17 98 -3 97 -3 97 -30 100 -14 2 -29
-2 -34 -9z m14 -111 c7 -7 12 -21 12 -33 0 -30 -19 -45 -57 -45 -31 0 -53 20
-53 49 0 33 72 55 98 29z"/>
<path d="M1327 999 c-25 -15 -10 -31 27 -29 50 3 66 1 66 -10 0 -5 -18 -10
-40 -10 -73 0 -114 -71 -59 -101 19 -10 156 -5 168 6 3 4 -2 12 -12 19 -11 9
-17 27 -17 52 0 59 -22 84 -73 84 -23 0 -50 -5 -60 -11z m93 -100 c0 -11 -42
-22 -65 -17 -24 5 -20 22 7 29 27 6 58 0 58 -12z"/>
<path d="M1514 998 c-3 -5 -1 -15 5 -21 14 -14 15 -97 1 -97 -11 0 -14 -30 -2
-31 4 0 16 -2 26 -4 11 -2 29 1 40 7 18 10 18 12 3 23 -27 19 -23 79 6 92 36
17 57 -1 57 -46 0 -28 -5 -41 -17 -46 -17 -6 -17 -7 0 -19 18 -14 63 -10 73 5
3 5 -2 12 -10 15 -12 4 -16 20 -16 54 0 67 -15 79 -95 79 -36 -1 -68 -5 -71
-11z"/>
<path d="M49 733 c-8 -9 -15 -48 -18 -95 -2 -58 -7 -78 -17 -78 -10 0 -14 -13
-14 -45 0 -26 5 -45 11 -45 7 0 9 -13 4 -37 -3 -21 -8 -97 -11 -169 -3 -109
-1 -134 11 -144 12 -10 22 -10 39 -2 21 9 24 19 31 96 l7 86 30 0 30 0 -7 -85
-7 -84 26 -12 c41 -19 54 2 62 99 6 69 10 82 24 82 10 0 28 8 41 18 28 24 20
50 -21 65 -26 10 -30 17 -30 47 0 34 3 37 38 46 32 8 37 13 37 39 0 25 -5 32
-33 40 l-33 9 7 78 c7 83 -1 108 -36 108 -29 0 -39 -22 -46 -108 l-7 -82 -30
0 -30 0 7 79 c5 65 4 82 -10 95 -20 20 -38 20 -55 -1z m111 -303 c0 -38 -2
-40 -30 -40 -28 0 -30 2 -30 40 0 38 2 40 30 40 28 0 30 -2 30 -40z"/>
<path d="M420 651 c-14 -28 -2 -51 31 -58 l29 -5 0 -159 0 -159 -25 0 c-31 0
-50 -32 -35 -60 10 -19 19 -20 137 -18 107 3 128 6 137 21 21 33 -4 52 -73 55
l-61 3 0 59 0 60 34 0 c29 0 36 -5 45 -30 7 -23 16 -30 35 -30 34 0 46 26 46
100 0 74 -12 100 -46 100 -19 0 -28 -7 -35 -30 -9 -25 -16 -30 -45 -30 l-34 0
0 60 0 60 105 0 105 0 0 -34 c0 -35 21 -66 44 -66 27 0 36 26 36 102 l0 78
-210 0 c-196 0 -210 -1 -220 -19z"/>
<path d="M910 655 c-20 -24 3 -65 35 -65 l25 0 0 -160 0 -160 -25 0 c-31 0
-50 -32 -35 -60 10 -19 19 -20 137 -18 107 3 128 6 137 21 21 33 -4 52 -73 55
l-61 3 0 59 0 60 33 0 c27 0 35 -5 44 -30 9 -23 18 -30 37 -30 32 0 46 30 46
100 0 70 -14 100 -46 100 -19 0 -28 -7 -37 -30 -9 -25 -17 -30 -44 -30 l-33 0
0 60 0 60 105 0 105 0 0 -34 c0 -35 21 -66 44 -66 27 0 36 26 36 102 l0 78
-209 0 c-175 0 -211 -2 -221 -15z"/>
<path d="M1400 655 c-18 -22 -2 -55 31 -62 l29 -5 0 -159 0 -158 -26 -3 c-35
-4 -53 -31 -38 -55 10 -16 28 -18 139 -18 111 0 129 2 139 18 21 33 -4 52 -73
55 l-61 3 0 59 0 60 33 0 c27 0 35 -5 44 -31 10 -25 16 -30 40 -27 31 3 40 25
42 100 1 67 -13 98 -45 98 -19 0 -28 -7 -37 -30 -9 -25 -17 -30 -44 -30 l-33
0 0 60 0 60 105 0 105 0 0 -40 c0 -33 4 -42 25 -52 42 -19 55 2 55 93 l0 79
-209 0 c-170 0 -211 -3 -221 -15z"/>
<path d="M1890 655 c-19 -23 -7 -49 28 -60 l32 -9 0 -157 0 -158 -26 -3 c-35
-4 -53 -31 -38 -55 10 -16 28 -18 139 -18 111 0 129 2 139 18 21 33 -4 52 -73
55 l-61 3 0 59 0 60 33 0 c27 0 35 -5 44 -31 10 -25 16 -30 40 -27 l28 3 0 95
0 95 -28 3 c-24 3 -30 -2 -40 -27 -9 -26 -17 -31 -44 -31 l-33 0 0 60 0 60
105 0 105 0 0 -39 c0 -49 20 -69 55 -53 24 11 25 16 25 92 l0 80 -209 0 c-170
0 -211 -3 -221 -15z"/>
<path d="M2382 658 c-27 -27 -6 -68 35 -68 l23 0 0 -159 0 -160 -26 -3 c-35
-4 -53 -31 -38 -55 10 -16 28 -18 139 -18 111 0 129 2 139 18 21 33 -4 52 -73
55 l-61 3 0 59 0 60 33 0 c27 0 35 -5 44 -31 10 -25 16 -30 40 -27 l28 3 0 95
c0 92 -1 95 -23 98 -28 4 -52 -14 -52 -39 0 -15 -7 -19 -35 -19 l-35 0 0 60 0
60 105 0 105 0 0 -39 c0 -49 20 -69 55 -53 24 11 25 16 25 92 l0 80 -208 0
c-148 0 -211 -3 -220 -12z"/>
<path d="M2872 658 c-27 -27 -6 -68 35 -68 l23 0 0 -159 0 -160 -26 -3 c-35
-4 -53 -31 -38 -55 10 -16 28 -18 139 -18 111 0 129 2 139 18 21 33 -4 52 -73
55 l-61 3 0 59 0 60 35 0 c27 0 35 -4 35 -18 0 -25 19 -42 47 -42 29 0 35 23
31 120 -3 70 -5 75 -26 78 -28 4 -52 -14 -52 -39 0 -15 -7 -19 -35 -19 l-35 0
0 60 0 60 105 0 105 0 0 -38 c0 -57 31 -79 64 -46 12 11 16 36 16 90 l0 74
-208 0 c-148 0 -211 -3 -220 -12z"/>
</g>
</svg>
