<?xml version="1.0" standalone="no"?>
<!DOCTYPE svg PUBLIC "-//W3C//DTD SVG 20010904//EN"
 "http://www.w3.org/TR/2001/REC-SVG-20010904/DTD/svg10.dtd">
<svg version="1.0" xmlns="http://www.w3.org/2000/svg"
 width="550.000000pt" height="545.000000pt" viewBox="0 0 550.000000 545.000000"
 preserveAspectRatio="xMidYMid meet">

<g transform="translate(0.000000,545.000000) scale(0.100000,-0.100000)"
fill="#000000" stroke="none">
<path d="M240 5410 c-20 -20 -20 -33 -20 -2621 0 -1773 3 -2606 10 -2620 11
-19 51 -19 2636 -19 2090 0 2626 3 2629 13 3 6 4 288 3 626 l-3 614 -61 -52
c-34 -28 -66 -51 -71 -51 -5 0 -16 -8 -25 -19 -8 -10 -22 -21 -29 -23 -10 -3
-10 -16 -1 -61 10 -52 9 -65 -12 -129 -13 -40 -28 -74 -35 -76 -15 -5 -14 20
4 94 10 43 11 72 5 94 -5 18 -7 37 -4 41 10 17 -13 9 -30 -10 -9 -10 -30 -21
-45 -24 -16 -3 -36 -14 -46 -23 -14 -14 -96 -59 -125 -69 -15 -5 -48 -18 -75
-30 -55 -24 -80 -33 -160 -59 -44 -14 -86 -26 -92 -26 -6 0 -24 -5 -40 -12
-28 -12 -63 -21 -203 -53 -102 -24 -108 -24 -245 -35 -207 -17 -287 -18 -402
-10 -61 5 -165 11 -230 14 -65 2 -145 12 -178 21 -33 9 -94 24 -135 32 -41 8
-79 18 -85 23 -5 4 -28 13 -50 20 -22 7 -53 20 -70 28 -16 8 -43 16 -60 18
-16 1 -31 7 -33 13 -2 6 -11 11 -20 11 -9 0 -26 7 -36 15 -11 8 -27 15 -37 15
-9 0 -22 7 -29 15 -7 8 -29 15 -50 15 -21 0 -43 -7 -50 -15 -7 -8 -17 -15 -23
-15 -6 0 -18 -6 -26 -13 -9 -7 -43 -21 -76 -31 -87 -27 -149 -48 -160 -56 -5
-4 -19 -10 -30 -13 -11 -3 -52 -15 -91 -26 -39 -11 -113 -25 -165 -31 -114
-13 -196 -29 -226 -43 -13 -6 -26 -8 -29 -4 -4 3 -14 2 -24 -3 -9 -5 -32 -12
-51 -14 -19 -3 -61 -10 -94 -17 -33 -6 -85 -8 -115 -6 -99 9 -164 18 -205 27
-22 5 -90 12 -150 15 -147 8 -248 23 -315 47 -30 11 -83 22 -118 24 -57 3 -63
1 -78 -21 -9 -14 -20 -23 -24 -20 -5 3 -11 1 -15 -5 -9 -14 -36 -13 -32 2 1 6
-6 14 -15 16 -13 2 -18 -3 -18 -17 0 -12 -12 -25 -32 -35 -39 -20 -48 -20 -48
0 0 12 -6 15 -25 10 -24 -6 -25 -4 -26 41 0 27 0 74 1 106 2 68 -5 79 -68 107
-26 12 -54 25 -62 30 -8 5 -35 20 -59 32 -24 13 -46 30 -48 40 -3 9 -13 18
-24 21 -24 6 -25 27 -1 28 9 0 25 2 35 4 25 5 159 -14 179 -25 11 -6 27 -6 41
-1 21 8 25 18 30 70 4 34 13 83 21 109 16 53 45 172 53 217 3 17 13 40 21 52
8 13 12 30 8 38 -3 9 1 18 9 21 10 4 12 15 8 35 -4 23 -2 29 12 29 12 0 16 6
12 20 -3 11 -1 22 4 25 4 3 6 12 2 21 -3 8 1 22 9 32 8 9 19 26 23 37 5 11 9
22 10 25 2 3 6 15 10 28 4 12 12 22 17 22 6 0 8 7 4 15 -3 9 0 15 9 15 9 0 15
10 15 25 0 13 7 28 15 33 9 4 17 23 20 41 2 18 12 44 22 58 10 15 28 45 41 67
26 47 101 125 120 126 6 0 12 4 12 9 0 15 63 81 105 111 22 15 67 53 100 84
33 31 84 73 113 92 28 20 52 40 52 45 0 5 7 9 15 9 8 0 32 17 53 38 49 46 120
100 169 128 39 21 57 63 46 105 -4 13 0 19 11 19 18 0 18 0 7 58 -5 24 -5 56
0 70 4 15 13 47 19 72 7 25 18 60 26 78 8 18 14 43 14 55 0 13 9 42 20 65 11
22 20 49 20 59 0 10 7 27 15 37 8 11 15 30 15 43 0 13 4 23 10 23 5 0 13 12
16 28 8 31 36 85 82 157 17 28 32 60 32 71 0 12 7 27 15 34 8 7 15 18 15 25 0
7 16 25 35 39 29 22 35 33 35 64 0 40 54 139 108 196 16 17 35 41 43 53 15 22
92 111 168 195 24 26 87 83 140 125 53 43 112 92 131 110 19 18 38 33 42 33 4
0 8 7 8 14 0 9 -24 24 -60 37 -50 18 -60 26 -60 45 0 25 -26 44 -60 44 -25 0
-38 28 -19 41 41 27 57 24 176 -27 17 -8 34 -14 37 -14 3 0 29 -11 58 -25 55
-27 83 -30 120 -16 44 17 103 17 103 1 0 -8 -11 -17 -24 -20 -14 -3 -26 -11
-29 -18 -3 -9 3 -11 20 -7 12 3 43 7 68 9 50 4 95 19 105 35 8 14 42 14 50 2
3 -6 -14 -19 -37 -31 l-43 -20 48 5 c38 4 47 2 47 -11 0 -8 -4 -13 -10 -9 -5
3 -17 2 -27 -3 -27 -14 -87 -32 -106 -32 -30 0 -18 -28 23 -57 132 -91 252
-203 377 -351 27 -31 81 -89 121 -129 39 -41 72 -76 72 -79 0 -3 6 -12 13 -19
31 -36 41 -52 46 -80 2 -5 9 -18 18 -27 9 -10 16 -29 16 -43 0 -14 4 -25 8
-25 9 0 31 -42 34 -65 1 -5 7 -23 13 -38 7 -16 12 -31 12 -34 0 -3 6 -19 14
-36 8 -18 22 -70 31 -117 32 -164 36 -181 46 -200 34 -66 72 -161 75 -189 2
-18 11 -39 20 -46 11 -8 15 -19 10 -30 -3 -10 -2 -23 4 -30 5 -6 13 -49 17
-95 l8 -84 84 -48 c46 -26 89 -48 95 -48 6 0 33 -25 60 -55 27 -30 55 -55 61
-55 7 0 24 -11 39 -25 15 -14 30 -25 34 -25 11 -1 52 -37 52 -46 0 -4 33 -40
73 -80 39 -39 113 -116 162 -170 50 -54 114 -122 142 -151 34 -34 51 -58 47
-68 -4 -10 0 -15 15 -15 12 0 21 -5 21 -11 0 -6 16 -30 35 -53 19 -24 35 -46
35 -51 0 -4 11 -21 25 -39 37 -45 38 -47 64 -96 13 -25 30 -52 37 -61 8 -8 14
-22 14 -30 0 -8 7 -23 15 -33 8 -11 15 -30 15 -42 0 -13 5 -26 10 -29 6 -3 10
-15 10 -26 0 -10 5 -19 10 -19 14 0 13 -26 -2 -51 -11 -17 -10 -22 6 -34 11
-8 20 -28 21 -47 4 -71 17 -154 28 -178 23 -51 26 -52 82 -22 34 19 58 26 67
21 10 -6 24 1 43 21 16 17 35 30 42 30 11 0 13 354 13 1990 0 1957 0 1989 -19
2000 -14 7 -847 10 -2620 10 -2588 0 -2601 0 -2621 -20z m1680 -1572 c0 -16
-3 -19 -11 -11 -6 6 -8 16 -5 22 11 17 16 13 16 -11z m-1300 -3044 c0 -17 -22
-14 -28 4 -2 7 3 12 12 12 9 0 16 -7 16 -16z"/>
<path d="M2813 4623 c-106 -72 -132 -91 -193 -138 -71 -55 -188 -172 -223
-222 -12 -18 -29 -33 -38 -33 -15 0 -41 -26 -119 -121 -17 -20 -30 -41 -30
-46 0 -10 -46 -74 -75 -104 -8 -9 -15 -23 -15 -32 0 -10 -8 -17 -18 -17 -18 0
-74 -77 -86 -120 -4 -14 -18 -47 -31 -75 -36 -79 -62 -202 -47 -226 7 -11 9
-25 5 -32 -4 -7 -8 -25 -9 -41 -1 -15 -11 -41 -23 -57 -12 -16 -19 -34 -15
-40 3 -6 0 -64 -6 -130 -7 -66 -11 -122 -8 -125 7 -6 58 17 58 27 0 4 14 10
30 14 17 4 30 11 30 16 0 5 6 9 13 9 6 0 24 6 39 14 15 8 40 17 57 21 17 4 31
10 31 14 0 8 59 24 180 50 47 10 93 22 103 26 29 12 20 -22 -10 -40 l-28 -16
40 5 c61 6 178 28 200 36 37 15 230 29 284 21 39 -6 58 -14 72 -32 l19 -24 6
24 c6 21 11 22 43 16 74 -14 117 -24 156 -35 22 -6 85 -15 140 -20 87 -6 236
-45 372 -97 8 -3 11 76 9 311 -1 273 -4 317 -18 333 -8 10 -19 28 -22 40 -4
11 -13 27 -21 33 -8 7 -15 20 -15 30 0 10 -7 23 -15 30 -8 7 -15 20 -15 30 0
9 -9 25 -20 35 -11 10 -20 26 -20 36 0 10 -5 21 -11 24 -5 4 -14 18 -19 31
-10 25 -34 32 -45 14 -9 -14 -25 -2 -19 13 2 7 -4 22 -16 32 -11 10 -20 24
-20 31 0 16 -31 66 -90 147 -33 46 -52 63 -72 65 -19 2 -38 18 -64 53 -20 27
-66 74 -103 104 -36 31 -73 61 -81 68 -18 15 -97 67 -129 84 -34 19 -52 16
-98 -14z"/>
<path d="M2609 3066 c-3 -3 -30 -8 -60 -10 -159 -12 -233 -38 -491 -169 -179
-91 -170 -84 -157 -131 5 -17 9 -61 9 -97 0 -36 7 -88 15 -115 8 -27 15 -67
15 -89 0 -23 4 -45 9 -50 5 -6 16 -41 26 -79 9 -38 23 -79 31 -91 8 -12 12
-24 9 -27 -10 -9 84 -231 122 -287 20 -31 47 -76 60 -101 35 -72 49 -86 69
-69 15 12 19 11 33 -11 42 -64 259 -286 330 -338 25 -18 52 -32 61 -32 9 0 27
-13 40 -29 l25 -29 40 20 c126 63 295 203 378 315 37 48 96 117 133 153 37 36
85 90 107 120 23 30 46 60 53 65 18 15 84 141 84 161 0 9 11 31 24 49 19 25
23 38 17 64 l-6 33 -14 -38 c-8 -22 -22 -50 -31 -64 -10 -14 -31 -48 -49 -76
-17 -28 -39 -61 -49 -72 -9 -11 -28 -35 -42 -53 -30 -39 -102 -109 -112 -109
-5 0 -8 -6 -8 -13 0 -17 -48 -63 -56 -54 -7 7 13 34 95 125 115 128 165 207
247 387 10 22 19 47 20 55 1 8 9 32 18 52 9 21 16 46 16 57 0 10 7 32 15 47 8
16 15 37 15 47 0 10 7 32 16 49 13 25 42 179 48 253 0 12 -10 24 -29 34 -55
27 -415 109 -526 120 -42 4 -80 11 -86 14 -14 9 -456 21 -464 13z m56 -520 c5
-55 4 -67 -7 -64 -8 3 -15 26 -18 59 l-6 54 -23 -48 c-12 -26 -26 -45 -32 -42
-5 4 -17 23 -26 43 l-16 37 -10 -52 c-5 -29 -14 -53 -20 -53 -5 0 -7 13 -4 29
3 15 9 51 13 80 4 28 12 51 18 51 6 0 20 -24 30 -52 l18 -53 31 60 c34 69 40
64 52 -49z m-475 80 c0 -9 -7 -12 -19 -9 -34 9 -35 -18 -2 -47 36 -33 37 -40
14 -69 -19 -22 -61 -33 -62 -16 -1 5 5 10 12 11 6 0 18 2 25 2 21 3 13 41 -13
58 -44 29 -26 83 28 84 9 0 17 -6 17 -14z m61 -66 c2 -49 -2 -75 -9 -78 -13
-4 -18 139 -5 151 10 11 11 6 14 -73z m156 68 c-2 -8 -16 -12 -31 -10 -55 7
-87 -58 -49 -100 9 -10 30 -18 50 -18 24 0 33 -5 33 -16 0 -31 -102 5 -119 42
-13 30 6 86 36 103 26 15 86 14 80 -1z m323 -39 c0 -56 13 -89 35 -89 18 0 55
70 55 104 0 25 16 43 27 32 11 -10 -25 -110 -47 -134 -25 -26 -66 -29 -78 -4
-11 21 -23 128 -15 136 16 16 23 2 23 -45z m210 -5 l45 -57 5 53 c3 33 10 55
19 58 11 4 13 -3 8 -28 -4 -18 -7 -54 -7 -81 0 -27 -4 -49 -8 -49 -4 0 -29 25
-55 56 l-47 56 0 -50 c0 -46 -12 -75 -23 -55 -6 12 4 153 12 153 3 0 26 -25
51 -56z m220 36 c37 -37 18 -95 -40 -125 -55 -29 -60 -23 -60 65 l0 80 40 0
c27 0 47 -7 60 -20z m80 -47 c5 -67 11 -79 35 -69 19 7 54 81 55 114 0 21 14
30 24 14 7 -12 -29 -110 -49 -132 -21 -23 -57 -26 -73 -7 -6 7 -14 44 -18 81
-6 57 -5 68 7 64 9 -3 16 -26 19 -65z m200 53 c0 -9 -7 -12 -19 -9 -34 9 -35
-18 -2 -47 17 -16 31 -36 31 -44 0 -18 -49 -58 -67 -54 -23 5 -19 21 5 23 46
3 50 44 6 63 -45 21 -24 81 29 82 9 0 17 -6 17 -14z m-1013 -293 c3 -8 -7 -12
-32 -11 -43 2 -67 -19 -67 -58 0 -34 34 -64 73 -64 16 0 29 -4 29 -10 0 -16
-63 -12 -88 6 -36 25 -45 50 -32 90 8 25 22 40 44 50 36 16 68 14 73 -3z m409
-55 c32 -81 34 -90 18 -95 -6 -2 -14 10 -17 27 -6 27 -10 30 -42 30 -29 0 -39
-5 -53 -30 -16 -28 -20 -30 -79 -28 l-63 2 0 78 0 78 50 0 c28 0 50 -5 50 -10
0 -7 -13 -8 -35 -4 -33 6 -35 5 -35 -20 0 -21 5 -26 25 -26 34 0 32 -18 -2
-22 -22 -2 -28 -8 -28 -28 0 -23 4 -25 44 -25 l43 -1 42 73 c22 40 44 73 47
73 3 0 19 -33 35 -72z m214 2 c0 -59 17 -89 41 -75 16 10 49 85 49 113 0 13 6
22 15 22 18 0 13 -30 -15 -97 -20 -45 -50 -67 -80 -58 -21 7 -25 18 -35 86 -5
41 -9 48 -33 52 -15 3 -30 3 -34 0 -5 -2 -8 -33 -8 -69 0 -85 -18 -83 -22 4
-2 51 -7 67 -18 68 -26 2 -31 4 -27 12 3 4 41 6 86 4 l81 -4 0 -58z m-512 48
c16 -16 15 -43 -3 -58 -21 -17 -19 -23 15 -43 30 -18 40 -37 19 -37 -6 0 -26
12 -45 26 -23 18 -34 22 -35 13 -1 -8 -2 -20 -3 -28 0 -8 -7 -16 -13 -18 -10
-4 -13 16 -13 76 l0 81 33 0 c18 0 38 -5 45 -12z m712 3 c0 -5 -10 -11 -22
-13 -31 -4 -34 -26 -4 -40 37 -16 45 -56 16 -80 -24 -19 -60 -24 -60 -8 0 6 8
10 19 10 10 0 25 7 32 16 11 14 9 20 -19 43 -34 27 -40 49 -20 69 14 14 58 16
58 3z m-520 -290 c0 -6 -17 -11 -37 -13 -27 -2 -39 -8 -41 -20 -3 -14 3 -18
28 -18 21 0 30 -4 28 -12 -3 -7 -15 -13 -29 -13 -19 0 -25 -6 -27 -27 -3 -27
-1 -28 38 -28 25 0 39 -4 35 -10 -3 -5 -26 -10 -51 -10 l-44 0 0 80 0 80 50 0
c28 0 50 -4 50 -9z m80 -6 c0 -5 -8 -10 -17 -10 -10 0 -19 -8 -21 -17 -2 -10
1 -18 7 -18 18 0 41 -31 41 -55 0 -17 -9 -29 -30 -40 -30 -16 -50 -13 -50 6 0
6 6 9 13 6 17 -6 47 11 47 28 0 8 -11 22 -24 30 -34 23 -39 42 -15 66 20 20
51 23 49 4z m160 5 c0 -5 -13 -10 -30 -10 -32 0 -31 3 -34 -104 -1 -16 -7 -31
-13 -33 -10 -4 -13 14 -13 66 0 64 -2 71 -20 71 -11 0 -20 5 -20 10 0 6 28 10
65 10 37 0 65 -4 65 -10z"/>
<path d="M3090 2560 c0 -60 0 -61 23 -49 28 15 46 39 47 61 0 22 -27 48 -51
48 -17 0 -19 -7 -19 -60z"/>
<path d="M2782 2288 c-18 -18 -15 -41 4 -34 9 3 18 6 20 6 8 0 4 29 -4 34 -5
3 -14 0 -20 -6z"/>
<path d="M2487 2302 c-6 -32 -3 -37 18 -29 19 8 20 43 1 50 -9 4 -16 -4 -19
-21z"/>
<path d="M3797 2783 c-3 -5 -8 -42 -12 -83 -3 -41 -10 -88 -15 -105 -16 -55
-22 -115 -12 -115 14 0 59 117 66 173 19 147 19 137 -3 137 -11 0 -22 -3 -24
-7z"/>
<path d="M4016 2727 c3 -8 1 -18 -5 -22 -6 -3 -11 -17 -11 -29 0 -20 -15 -58
-96 -233 -8 -17 -14 -34 -14 -37 0 -6 -13 -37 -66 -154 -13 -29 -24 -55 -24
-57 0 -3 -15 -28 -33 -57 -23 -36 -33 -65 -33 -90 0 -28 -12 -54 -52 -112 -29
-42 -52 -79 -52 -84 0 -4 -21 -31 -47 -58 -27 -28 -69 -75 -94 -105 -26 -30
-58 -67 -73 -82 -14 -15 -30 -36 -36 -47 -17 -33 -236 -215 -342 -286 -54 -36
-96 -69 -93 -74 8 -14 84 -50 105 -50 10 0 21 -4 24 -9 14 -22 118 -44 234
-50 87 -4 125 -10 131 -19 6 -11 24 -12 72 -7 61 7 403 9 574 5 90 -3 257 15
285 30 10 6 40 10 65 10 25 0 54 4 64 9 9 5 46 14 82 19 64 10 99 20 175 53
23 10 54 21 68 25 14 3 26 10 26 15 0 5 8 9 19 9 10 0 24 7 31 15 7 8 17 15
22 15 6 0 24 6 41 14 18 8 41 16 52 18 17 3 20 12 22 58 0 30 -3 60 -7 65 -4
6 -10 26 -13 45 -9 60 -18 94 -32 125 -7 17 -19 50 -26 75 -7 25 -17 50 -22
57 -5 7 -6 17 -2 23 4 6 -5 10 -22 10 -31 0 -53 16 -53 38 0 23 -60 135 -79
149 -29 20 -116 152 -174 266 -31 59 -76 135 -102 169 -45 60 -245 240 -288
258 -12 6 -35 19 -52 30 -16 11 -37 23 -45 26 -8 4 -22 13 -30 19 -8 7 -30 16
-47 20 -27 5 -32 4 -27 -8z m904 -1097 c0 -5 -4 -10 -10 -10 -5 0 -10 5 -10
10 0 6 5 10 10 10 6 0 10 -4 10 -10z m10 -70 c0 -5 -4 -10 -10 -10 -5 0 -10 5
-10 10 0 6 5 10 10 10 6 0 10 -4 10 -10z m25 -113 c9 -58 3 -102 -14 -102 -10
0 -14 19 -16 73 -2 55 0 72 10 72 9 0 16 -17 20 -43z"/>
<path d="M1661 2673 c-49 -20 -318 -231 -382 -301 -49 -53 -139 -175 -139
-188 0 -3 -15 -24 -33 -47 -30 -37 -107 -162 -107 -173 0 -2 -22 -36 -50 -76
-27 -40 -50 -78 -50 -86 0 -7 -8 -29 -18 -50 -10 -20 -27 -73 -36 -117 -10
-44 -22 -93 -27 -110 -9 -29 -20 -193 -21 -307 -1 -57 12 -88 37 -88 8 0 22
-11 32 -23 30 -39 60 -48 161 -54 54 -3 102 -9 107 -13 19 -13 70 -22 150 -25
44 -2 115 -8 157 -14 122 -17 465 -4 563 21 44 11 84 24 90 29 5 5 19 9 31 9
29 0 54 10 54 21 0 4 -7 6 -15 3 -8 -4 -23 -3 -32 1 -15 5 -12 9 16 21 18 8
48 14 67 14 18 0 35 4 38 9 3 5 34 12 68 16 96 10 253 74 253 103 0 12 -25 30
-73 51 -12 6 -25 17 -28 26 -3 8 -54 54 -112 103 -106 88 -284 268 -304 307
-6 11 -17 24 -24 28 -8 4 -14 13 -14 19 0 6 -11 25 -24 43 -22 28 -67 104 -86
145 -4 8 -17 33 -29 56 -11 23 -18 44 -15 47 3 3 -4 19 -17 36 -16 22 -20 38
-16 60 4 17 3 31 -2 31 -12 0 -26 40 -51 150 -13 52 -29 115 -36 139 -8 25
-14 53 -14 62 0 32 -34 129 -45 128 -5 0 -16 -3 -24 -6z"/>
</g>
</svg>
