<?xml version="1.0" standalone="no"?>
<!DOCTYPE svg PUBLIC "-//W3C//DTD SVG 20010904//EN"
 "http://www.w3.org/TR/2001/REC-SVG-20010904/DTD/svg10.dtd">
<svg version="1.0" xmlns="http://www.w3.org/2000/svg"
 width="1000.000000pt" height="1000.000000pt" viewBox="0 0 1000.000000 1000.000000"
 preserveAspectRatio="xMidYMid meet">

<g transform="translate(0.000000,1000.000000) scale(0.100000,-0.100000)"
fill="#000000" stroke="none">
<path d="M4946 7268 c5 -8 2 -9 -10 -5 -23 9 -53 -25 -133 -146 -27 -41 -46
-83 -48 -105 -3 -29 -2 -32 5 -16 13 32 34 43 25 13 -8 -28 -46 -72 -54 -63
-3 3 0 8 6 12 8 5 9 13 3 22 -7 11 -11 9 -19 -12 -5 -14 -15 -29 -20 -33 -6
-3 -11 -18 -12 -33 -1 -27 -1 -27 -8 -3 l-6 24 -13 -28 c-17 -37 -32 -116 -21
-109 5 3 9 0 9 -5 0 -6 -4 -11 -10 -11 -5 0 -10 -17 -10 -37 0 -28 3 -34 10
-23 5 8 7 22 5 31 -3 9 3 24 14 33 19 17 19 17 14 -26 -3 -24 -9 -47 -14 -52
-12 -13 -11 -43 0 -51 6 -3 19 15 30 40 15 35 18 52 11 71 -15 38 -12 40 15
10 26 -28 25 -36 -5 -71 -10 -11 -21 -31 -25 -43 -6 -21 -4 -23 17 -17 22 6
22 5 -4 -19 -16 -14 -28 -32 -28 -40 0 -14 -28 -36 -45 -36 -9 0 6 44 18 51 5
4 7 14 4 24 -4 9 -12 13 -18 10 -6 -4 -5 3 3 14 11 18 11 23 -1 30 -8 5 -14
29 -15 65 0 31 -2 56 -3 56 -6 0 -46 -76 -46 -89 0 -9 -7 -22 -16 -29 -12 -9
-13 -12 -2 -10 9 2 15 -6 16 -22 4 -71 6 -80 16 -80 8 0 10 13 6 38 -4 23 -1
43 6 54 11 13 13 5 13 -48 -1 -35 -4 -64 -8 -64 -5 0 -8 -7 -8 -15 0 -9 -6
-12 -15 -9 -12 5 -14 0 -9 -25 6 -30 -9 -45 -19 -18 -3 6 -6 2 -6 -10 -1 -16
-5 -21 -17 -16 -13 5 -15 2 -10 -14 4 -13 2 -23 -8 -26 -9 -4 -16 4 -19 23 -4
19 -12 28 -23 26 -24 -4 -33 -27 -22 -56 7 -20 11 -22 18 -10 9 14 12 7 9 -16
0 -4 5 -11 13 -15 11 -7 11 -9 0 -9 -7 0 -20 7 -29 15 -22 23 -37 14 -49 -31
-6 -21 -16 -52 -23 -68 -6 -16 -10 -35 -7 -41 2 -7 -4 -31 -15 -55 -11 -24
-17 -51 -14 -61 3 -9 1 -20 -5 -24 -5 -3 -10 -22 -10 -41 0 -32 1 -34 16 -20
8 9 19 16 23 16 5 0 9 10 9 23 0 30 23 85 29 70 3 -7 -1 -29 -7 -48 -11 -33
-10 -37 19 -64 32 -30 38 -46 21 -56 -5 -3 -10 -25 -10 -47 0 -40 0 -41 20
-23 11 10 20 16 20 14 0 -6 -27 -91 -35 -111 -5 -13 -1 -16 17 -14 52 6 66 16
70 51 2 18 1 42 -3 52 -6 14 -8 14 -9 3 -3 -24 -19 61 -19 105 -1 58 23 28 25
-33 3 -75 2 -76 43 78 34 132 83 270 142 397 23 51 24 59 4 43 -12 -10 -15
-10 -15 1 0 8 10 19 22 24 20 9 113 161 150 246 7 16 16 29 19 29 3 0 20 23
38 50 32 49 51 63 51 37 0 -16 52 -67 68 -67 7 0 12 -7 12 -15 0 -8 -5 -15
-10 -15 -6 0 -3 -11 6 -25 9 -14 19 -23 22 -20 3 3 0 11 -6 17 -17 17 -15 31
3 25 10 -5 16 4 21 28 7 39 18 44 33 18 9 -16 10 -15 11 5 0 15 -7 26 -19 29
-15 4 -17 11 -11 42 4 21 10 43 14 49 4 7 1 12 -8 12 -9 0 -16 5 -16 10 0 6 9
10 19 10 10 0 22 7 25 16 4 9 9 15 11 12 2 -2 -4 -28 -15 -56 -25 -64 -25 -63
0 -90 11 -12 19 -27 18 -33 -2 -6 3 -14 9 -16 15 -5 36 44 29 63 -3 8 -1 16 4
19 14 8 23 -77 11 -107 -14 -38 -31 -44 -31 -12 0 21 -3 25 -11 17 -15 -15 -3
-63 15 -63 18 0 32 -58 17 -73 -15 -15 -15 -131 0 -121 6 3 8 17 5 29 -7 26 8
43 18 23 3 -7 4 0 1 15 -8 40 13 113 28 98 8 -8 8 -19 -1 -44 -17 -43 -24
-114 -13 -122 5 -3 7 -21 4 -40 -3 -21 -2 -35 5 -35 5 0 8 -9 5 -20 -4 -14 -1
-20 7 -18 7 2 14 -5 15 -14 3 -15 0 -16 -17 -7 -18 10 -19 8 -13 -13 4 -12 12
-29 19 -37 9 -11 12 -9 17 10 5 17 7 9 8 -26 1 -27 6 -57 12 -65 9 -12 10 -12
5 3 -3 10 1 28 10 40 16 21 16 21 11 -13 -3 -19 -9 -48 -12 -65 -6 -27 -4 -30
19 -31 16 -1 27 4 29 15 3 9 5 5 6 -10 0 -14 -6 -34 -15 -45 -8 -10 -13 -14
-10 -7 4 6 2 14 -4 18 -5 3 -10 4 -10 2 0 -13 41 -201 44 -205 10 -10 24 11
31 45 l7 38 14 -45 c16 -53 19 -83 5 -61 -5 8 -16 11 -30 6 -18 -5 -21 -12
-16 -38 4 -18 8 -41 10 -52 2 -11 4 -22 5 -25 1 -3 2 -13 1 -22 -1 -10 3 -26
9 -35 10 -15 11 -13 6 12 -2 17 1 40 7 52 11 21 13 20 32 -23 15 -34 24 -43
37 -38 15 4 18 -1 18 -27 0 -31 -1 -32 -15 -13 -14 19 -14 19 -15 -1 -1 -14
-5 -10 -14 13 -14 41 -27 32 -16 -11 5 -18 7 -43 6 -57 -2 -14 -4 -33 -5 -43
0 -10 -6 -15 -11 -12 -6 4 -8 15 -5 25 3 10 1 21 -5 25 -5 3 -10 1 -10 -5 0
-6 -5 -8 -11 -4 -7 4 -9 -1 -5 -15 3 -11 9 -31 12 -42 4 -14 2 -19 -5 -15 -6
4 -11 4 -11 -1 -1 -4 -3 -41 -7 -82 -4 -56 -2 -75 8 -82 10 -6 8 -10 -10 -17
-17 -6 -21 -11 -12 -16 7 -5 15 -6 17 -3 5 4 64 -50 64 -59 0 -1 -9 0 -20 3
-11 3 -20 1 -20 -5 0 -6 8 -13 18 -15 13 -4 13 -5 2 -6 -12 -1 -15 -10 -12
-37 3 -26 1 -35 -7 -30 -6 4 -11 22 -12 39 -3 90 -37 114 -58 42 -12 -42 -11
-66 6 -112 6 -17 6 -17 -14 0 -13 11 -24 14 -27 8 -3 -5 8 -20 26 -32 18 -13
26 -25 19 -27 -14 -5 15 -42 33 -42 12 0 46 -35 46 -46 0 -4 -8 -4 -18 -2 -15
4 -18 1 -14 -20 7 -34 -12 -21 -28 20 -8 18 -22 45 -32 61 -12 17 -15 27 -7
27 9 0 8 4 -1 15 -16 19 -39 19 -46 0 -8 -21 15 -75 32 -75 11 0 64 -76 64
-92 0 -9 -42 3 -65 19 -11 7 -14 13 -7 13 9 0 10 5 3 17 -5 10 -18 18 -27 18
-11 0 -21 10 -25 25 -5 22 -7 23 -14 7 -4 -10 -3 -29 3 -43 12 -25 4 -32 -15
-13 -8 8 -18 3 -37 -18 -14 -15 -26 -31 -26 -35 0 -5 -18 -27 -39 -49 -22 -23
-37 -47 -35 -54 3 -6 -6 -20 -18 -31 -18 -15 -20 -16 -9 -1 27 34 3 27 -40
-12 -52 -47 -54 -43 72 -110 l75 -40 37 37 c42 43 43 48 20 76 -18 21 -18 21
3 4 11 -10 24 -18 29 -18 12 0 34 33 35 53 0 10 4 16 9 12 12 -7 62 54 90 110
12 25 26 47 31 50 5 3 7 12 3 20 -3 8 0 15 5 15 6 0 23 23 37 51 24 48 24 53
10 75 -20 31 -19 46 3 42 15 -3 17 7 15 112 -2 76 1 110 7 100 5 -8 10 -33 10
-55 1 -35 2 -37 11 -17 5 13 11 48 13 79 8 94 17 73 12 -27 -5 -91 -5 -93 8
-55 8 22 15 58 16 80 1 22 7 67 15 100 13 59 14 291 1 380 -3 22 -8 60 -12 84
-9 70 -14 77 -36 50 -18 -24 -18 -24 -2 18 14 36 14 50 4 93 -7 27 -15 48 -20
45 -4 -3 -10 19 -12 48 -4 44 -23 104 -68 212 -4 11 -18 45 -30 75 -34 83
-109 230 -118 230 -4 0 -8 8 -9 18 -1 9 -14 39 -30 65 -15 27 -39 68 -53 92
-33 56 -50 76 -61 69 -5 -3 -9 5 -9 18 0 13 -7 32 -15 42 -15 19 -15 19 -15
-1 0 -30 -17 -38 -37 -18 -25 25 -38 -4 -18 -41 20 -39 20 -65 0 -38 -9 12
-14 14 -15 6 0 -7 -5 -10 -10 -7 -6 3 -7 17 -4 31 6 23 4 24 -31 19 -35 -4
-37 -3 -31 20 4 16 2 25 -5 25 -6 0 -9 9 -6 20 3 11 1 23 -4 26 -5 3 -9 13 -9
23 0 11 -10 22 -22 26 -22 6 -22 7 7 20 17 7 32 9 33 4 7 -17 22 2 22 28 0 25
-1 25 -19 9 -17 -15 -19 -15 -32 1 -12 15 -12 16 3 11 10 -4 19 -1 22 8 8 21
8 24 -5 24 -5 0 -7 -5 -3 -12z m-16 -225 c0 -32 -11 -24 -14 11 -2 14 1 23 5
20 5 -3 9 -17 9 -31z m75 -23 c3 -5 -1 -10 -9 -10 -9 0 -16 5 -16 10 0 6 4 10
9 10 6 0 13 -4 16 -10z m105 -11 c0 -11 -4 -17 -10 -14 -5 3 -10 13 -10 21 0
8 5 14 10 14 6 0 10 -9 10 -21z m-129 -7 c15 -13 19 -21 11 -26 -7 -4 -12 -3
-12 2 0 5 -9 12 -20 15 -11 3 -20 10 -20 16 0 16 15 13 41 -7z m5 -50 c25 4
48 -40 29 -59 -17 -17 -26 -17 -19 0 3 8 -6 25 -20 38 -14 13 -26 29 -26 34 0
6 4 4 9 -3 4 -8 16 -12 27 -10z m194 -8 c0 -8 -5 -12 -10 -9 -6 4 -8 11 -5 16
9 14 15 11 15 -7z m-119 -47 c-8 -8 -11 -4 -11 14 0 33 14 47 18 19 2 -12 -1
-27 -7 -33z m105 -23 c-6 -23 -8 -23 -22 -9 -15 14 -15 18 2 36 21 23 29 12
20 -27z m-466 -49 c0 -8 -7 -15 -15 -15 -16 0 -20 12 -8 23 11 12 23 8 23 -8z
m561 -232 c-10 -17 -10 -16 -11 3 0 23 13 41 18 25 2 -6 -1 -18 -7 -28z m100
-50 c-17 -28 -38 -53 -45 -53 -4 0 6 16 21 35 31 38 39 45 24 18z m-661 -13
c0 -5 -4 -10 -10 -10 -5 0 -10 5 -10 10 0 6 5 10 10 10 6 0 10 -4 10 -10z
m561 -21 c-9 -22 -10 -22 -10 -3 -1 11 2 24 6 27 12 12 14 0 4 -24z m-648 -11
c-3 -16 -11 -28 -19 -28 -14 0 -10 24 9 48 14 17 16 12 10 -20z m684 -35 c-3
-10 -5 -4 -5 12 0 17 2 24 5 18 2 -7 2 -21 0 -30z m24 -98 l-9 -40 -1 33 c-1
19 -5 31 -11 27 -5 -3 -10 1 -10 10 0 9 4 14 9 10 5 -3 13 5 17 17 8 22 8 22
11 3 2 -11 0 -38 -6 -60z m-782 -29 c-9 -8 -10 -7 -5 7 3 10 7 26 7 35 1 9 4
6 6 -7 3 -13 -1 -28 -8 -35z m875 32 c-9 -30 -8 -30 -27 -22 -13 5 -14 9 -4
25 17 27 40 25 31 -3z m-906 -110 c1 6 6 12 10 12 5 0 6 -14 4 -31 -4 -26 -6
-29 -14 -15 -5 9 -16 16 -23 16 -10 0 -15 11 -15 35 0 19 5 35 10 35 6 0 11 8
12 18 0 9 4 -5 8 -33 4 -27 8 -44 8 -37z m872 52 c0 -5 -5 -10 -11 -10 -5 0
-7 5 -4 10 3 6 8 10 11 10 2 0 4 -4 4 -10z m-934 -55 c-3 -8 -1 -15 4 -15 6 0
10 -9 10 -20 0 -20 16 -28 22 -11 2 5 12 3 22 -5 11 -7 16 -17 12 -21 -4 -4
-11 -1 -15 6 -7 10 -10 10 -16 1 -4 -6 -2 -17 4 -23 6 -6 11 -17 11 -24 0 -11
-4 -11 -20 -1 -11 7 -20 19 -20 26 0 7 -7 27 -16 43 -14 28 -13 59 2 59 3 0 4
-7 0 -15z m-41 -55 c3 -5 1 -10 -4 -10 -6 0 -11 5 -11 10 0 6 2 10 4 10 3 0 8
-4 11 -10z m-15 -53 c0 -5 -4 -5 -10 -2 -5 3 -10 14 -10 23 0 15 2 15 10 2 5
-8 10 -19 10 -23z m66 -53 c19 -13 22 -20 13 -30 -15 -18 -49 0 -49 26 0 24 4
25 36 4z m1035 -106 c-6 -10 -11 -27 -11 -38 0 -11 -5 -20 -11 -20 -11 0 -8
51 8 125 l6 30 10 -39 c7 -28 6 -45 -2 -58z m-70 -93 c5 4 6 -1 3 -10 -5 -12
-10 -13 -20 -4 -8 6 -11 16 -7 22 5 8 8 7 11 -1 2 -7 8 -10 13 -7z m-945 -67
c-18 -26 -22 -17 -5 14 6 11 13 17 16 15 3 -3 -2 -16 -11 -29z m1041 -30 c-3
-8 -6 -5 -6 6 -1 11 2 17 5 13 3 -3 4 -12 1 -19z m-32 2 c3 -5 1 -10 -4 -10
-6 0 -11 5 -11 10 0 6 2 10 4 10 3 0 8 -4 11 -10z m42 -162 c-3 -8 -6 -5 -6 6
-1 11 2 17 5 13 3 -3 4 -12 1 -19z m-13 -51 c11 -5 13 -13 6 -39 -5 -18 -12
-46 -15 -61 -3 -15 -10 -25 -14 -22 -5 3 -11 1 -13 -5 -2 -6 -8 -6 -18 0 -13
8 -12 10 3 10 22 0 22 26 0 38 -11 7 -14 15 -8 28 5 13 9 15 12 7 3 -7 9 -13
14 -13 8 0 5 45 -7 95 -3 14 0 12 10 -6 9 -15 22 -29 30 -32z m43 -19 c-3 -7
-5 -2 -5 12 0 14 2 19 5 13 2 -7 2 -19 0 -25z m-147 -418 c0 -5 -5 -10 -11
-10 -5 0 -7 5 -4 10 3 6 8 10 11 10 2 0 4 -4 4 -10z m-130 -150 c0 -5 -4 -10
-9 -10 -6 0 -13 5 -16 10 -3 6 1 10 9 10 9 0 16 -4 16 -10z m-80 -60 c0 -5 -5
-10 -11 -10 -5 0 -7 5 -4 10 3 6 8 10 11 10 2 0 4 -4 4 -10z"/>
<path d="M5067 7135 c-4 -8 -2 -15 3 -15 5 0 10 -10 13 -22 3 -20 5 -21 11 -6
5 10 2 25 -7 38 -12 18 -15 18 -20 5z"/>
<path d="M4980 7100 c0 -5 5 -10 11 -10 5 0 7 5 4 10 -3 6 -8 10 -11 10 -2 0
-4 -4 -4 -10z"/>
<path d="M5010 7060 c0 -5 5 -10 11 -10 5 0 7 5 4 10 -3 6 -8 10 -11 10 -2 0
-4 -4 -4 -10z"/>
<path d="M5120 6749 c0 -11 5 -17 10 -14 6 3 10 13 10 21 0 8 -4 14 -10 14 -5
0 -10 -9 -10 -21z"/>
<path d="M5101 6724 c0 -11 3 -14 6 -6 3 7 2 16 -1 19 -3 4 -6 -2 -5 -13z"/>
<path d="M5142 6674 c2 -28 8 -49 16 -52 7 -2 12 2 11 9 -1 8 2 22 6 33 9 20
-3 47 -24 54 -9 3 -11 -9 -9 -44z"/>
<path d="M5100 6665 c0 -8 9 -29 21 -47 18 -28 20 -29 14 -8 -4 14 -9 35 -12
48 -6 25 -23 30 -23 7z"/>
<path d="M4521 6614 c0 -11 3 -14 6 -6 3 7 2 16 -1 19 -3 4 -6 -2 -5 -13z"/>
<path d="M4495 6564 c-4 -16 -9 -35 -11 -42 -2 -8 3 -12 14 -10 20 4 29 55 13
71 -7 7 -12 1 -16 -19z"/>
<path d="M4531 6575 c0 -5 6 -19 14 -29 8 -11 15 -15 15 -10 0 6 -7 19 -15 30
-8 10 -14 15 -14 9z"/>
<path d="M4355 6001 c-3 -12 -11 -21 -16 -21 -5 0 -9 -4 -9 -10 0 -5 6 -10 14
-10 16 0 19 -47 3 -57 -5 -3 -16 1 -22 11 -11 15 -13 14 -19 -6 -9 -36 -7
-128 3 -128 5 0 12 18 16 41 4 22 9 38 11 36 5 -4 14 -67 15 -98 0 -11 7 -15
19 -12 26 7 36 21 48 65 10 37 5 121 -7 114 -3 -3 -5 14 -3 36 3 22 -1 45 -7
51 -8 8 -11 7 -11 -2 0 -10 -3 -11 -14 -2 -11 10 -16 8 -21 -8z m35 -121 c0 8
2 11 5 8 9 -9 -7 -38 -20 -38 -17 0 -28 17 -20 30 5 8 11 7 21 -1 11 -9 14 -9
14 1z"/>
<path d="M4741 5819 c-28 -5 -58 -21 -80 -41 -33 -31 -34 -32 -18 -5 10 15 15
27 11 27 -14 0 -131 -33 -159 -44 -16 -7 -42 -18 -57 -24 -18 -8 -28 -19 -29
-34 -1 -18 -2 -19 -6 -5 -3 11 -10 16 -20 13 -8 -3 -19 -6 -24 -6 -6 0 -8 -18
-3 -45 4 -30 2 -50 -6 -60 -6 -7 -13 -29 -15 -47 -2 -18 -6 -50 -9 -70 -5 -44
11 -51 44 -18 11 11 23 20 26 20 3 0 42 18 87 39 45 21 110 48 144 60 66 22
216 51 264 51 16 0 29 5 29 11 0 8 4 8 13 1 7 -6 44 -10 82 -10 39 0 77 -2 85
-5 8 -3 40 -11 70 -17 30 -6 76 -19 102 -27 42 -15 48 -15 62 0 19 19 21 54 4
60 -9 3 -10 8 -3 18 6 8 10 36 9 63 -1 41 -5 51 -24 58 -26 9 -77 20 -105 22
-11 1 -27 5 -35 11 -22 14 -310 20 -310 6 0 -6 -7 -11 -15 -11 -8 0 -15 5 -15
10 0 12 -37 11 -99 -1z m244 -20 c-10 -15 -25 -10 -19 6 4 8 10 12 15 9 5 -3
7 -10 4 -15z m26 -50 c32 -17 71 -47 85 -67 26 -33 23 -32 -53 22 -45 31 -86
56 -92 56 -6 0 -11 5 -11 10 0 15 7 13 71 -21z m144 20 c11 -17 0 -20 -21 -4
-17 13 -17 14 -2 15 9 0 20 -5 23 -11z m114 -91 c14 -1 26 -8 28 -14 5 -15
-43 -11 -80 7 -25 11 -27 14 -10 20 10 4 23 3 28 -1 6 -5 21 -10 34 -12z
m-622 -50 c-3 -7 -5 -2 -5 12 0 14 2 19 5 13 2 -7 2 -19 0 -25z m-158 -29
c-13 -38 -29 -60 -29 -41 0 19 30 86 35 80 3 -3 0 -20 -6 -39z m-92 -36 c-3
-10 -5 -2 -5 17 0 19 2 27 5 18 2 -10 2 -26 0 -35z m-27 -23 c0 -5 -2 -10 -4
-10 -3 0 -8 5 -11 10 -3 6 -1 10 4 10 6 0 11 -4 11 -10z"/>
<path d="M4299 5659 c-8 -16 -8 -28 2 -48 11 -24 13 -24 16 -6 2 11 8 32 13
48 11 34 -13 39 -31 6z"/>
<path d="M4250 5640 c-12 -7 -12 -12 -2 -22 9 -9 12 -9 12 4 0 9 6 19 13 21 6
3 8 6 2 6 -5 0 -17 -4 -25 -9z"/>
<path d="M5649 5638 c0 -2 -2 -20 -4 -42 -2 -21 -9 -73 -15 -115 l-10 -76 42
-35 c94 -77 223 -193 227 -204 2 -6 7 -13 10 -16 22 -17 150 -182 211 -270 85
-122 220 -366 220 -395 0 -11 -4 -15 -8 -10 -4 6 -85 10 -214 10 l-207 0 -3
-40 c-4 -40 -11 -34 -22 16 -5 24 -10 26 -158 48 -84 13 -162 25 -173 27 -11
2 -66 17 -123 34 -56 17 -107 28 -112 25 -6 -3 -10 -1 -10 5 0 6 -15 16 -32
22 -71 25 -247 119 -313 168 -136 101 -243 222 -318 360 -41 73 -92 221 -102
293 -4 26 -11 47 -16 47 -19 0 -116 -54 -181 -100 -10 -8 11 -82 21 -75 5 2
11 -18 13 -45 6 -57 81 -219 151 -326 113 -171 264 -314 449 -425 45 -27 91
-49 104 -49 12 0 24 -6 27 -14 7 -17 159 -82 257 -108 41 -11 107 -29 145 -40
93 -25 309 -60 349 -56 25 2 32 8 37 33 l6 30 9 -35 c10 -34 12 -35 70 -41
154 -17 587 1 710 29 l31 7 -58 134 c-147 337 -377 686 -610 923 -73 75 -101
98 -121 98 -15 0 -30 -4 -33 -10 -6 -10 -65 14 -65 26 0 3 21 2 48 -2 l47 -6
-34 35 c-45 48 -238 179 -242 165z m131 -168 c12 -8 11 -10 -7 -10 -12 0 -25
5 -28 10 -8 13 15 13 35 0z m-1289 -87 c-12 -20 -14 -14 -5 12 4 9 9 14 11 11
3 -2 0 -13 -6 -23z m1455 -151 c-3 -5 -17 -9 -32 -9 -28 0 -21 13 11 19 24 5
29 3 21 -10z m164 -212 c-7 -17 -14 -29 -16 -27 -2 2 1 18 7 36 6 18 14 30 17
27 2 -3 -1 -19 -8 -36z m94 -166 c4 -9 4 -19 2 -21 -8 -8 -26 8 -26 23 0 19
16 18 24 -2z m126 -44 c0 -5 -4 -10 -10 -10 -5 0 -10 5 -10 10 0 6 5 10 10 10
6 0 10 -4 10 -10z m-670 -433 c0 -5 -4 -5 -10 -2 -5 3 -10 14 -10 23 0 15 2
15 10 2 5 -8 10 -19 10 -23z m397 -64 c-3 -10 -5 -4 -5 12 0 17 2 24 5 18 2
-7 2 -21 0 -30z m123 -53 c0 -5 -7 -10 -16 -10 -8 0 -12 5 -9 10 3 6 10 10 16
10 5 0 9 -4 9 -10z"/>
<path d="M4164 5585 c-28 -14 -61 -36 -74 -50 -20 -21 -21 -27 -9 -41 13 -16
12 -16 -9 -5 -19 10 -28 10 -47 -3 -16 -11 -22 -22 -18 -33 5 -12 2 -15 -10
-10 -16 6 -77 -36 -77 -53 0 -5 14 -11 30 -15 17 -4 30 -12 30 -19 0 -10 -10
-11 -42 -5 -24 4 -48 8 -54 9 -11 0 -175 -182 -183 -202 -2 -5 6 -16 18 -24
31 -22 16 -37 -19 -19 l-28 15 -50 -68 c-113 -155 -224 -335 -304 -496 -35
-72 -128 -282 -128 -290 0 -15 365 -45 550 -45 146 -1 170 4 170 32 1 22 1 22
20 -1 18 -22 25 -23 72 -17 29 4 57 9 61 12 4 3 38 5 74 6 37 1 68 7 70 12 2
6 22 10 45 9 24 0 66 6 93 13 28 8 74 19 102 24 106 19 463 164 463 188 0 4
-12 14 -27 23 -16 9 -56 39 -91 67 -34 28 -68 51 -75 51 -6 0 -46 -13 -87 -29
-72 -29 -185 -64 -243 -76 -16 -3 -36 -19 -48 -38 l-21 -32 6 28 7 28 -48 -6
c-26 -4 -53 -8 -59 -10 -8 -2 -10 -34 -7 -104 2 -58 0 -101 -5 -101 -8 0 -34
135 -31 158 5 28 -3 43 -18 39 -10 -3 -35 -8 -55 -11 -27 -5 -38 -12 -41 -29
-4 -22 -4 -22 -6 1 -1 22 -5 23 -58 21 -65 -3 -83 -12 -83 -41 0 -11 5 -18 13
-15 6 2 11 12 11 21 -1 10 6 16 17 16 11 0 19 -4 19 -10 0 -15 21 -12 40 5 16
14 18 14 24 0 4 -11 -2 -19 -19 -25 -17 -6 -27 -22 -36 -52 -6 -24 -13 -49
-15 -55 -8 -30 -24 -9 -24 31 0 29 -5 46 -14 49 -21 8 -48 -37 -40 -68 4 -15
2 -25 -5 -25 -6 0 -11 4 -11 9 0 5 -8 17 -17 27 -13 13 -14 19 -5 22 6 2 12
10 12 18 0 9 5 12 10 9 6 -4 10 10 10 34 l0 41 -77 -1 c-99 -2 -233 11 -233
22 0 5 16 41 35 81 23 49 31 74 23 77 -7 2 -30 22 -52 44 l-41 39 39 -21 c43
-24 53 -22 37 7 -6 12 -11 26 -11 33 0 17 38 -18 45 -42 4 -11 10 -19 14 -19
5 0 44 55 87 122 43 67 111 161 150 210 70 86 71 88 60 122 -7 23 -18 36 -31
38 -24 4 -34 38 -11 38 9 0 16 -4 16 -10 0 -5 6 -10 14 -10 8 0 17 -9 21 -19
9 -30 35 -34 62 -10 28 27 29 43 4 68 -17 17 -17 19 -1 29 13 8 22 6 38 -10
l21 -21 43 41 c23 23 46 42 49 42 14 0 30 120 27 198 l-3 83 -51 -26z m33 -57
c-3 -8 -6 -5 -6 6 -1 11 2 17 5 13 3 -3 4 -12 1 -19z m-107 -130 c0 -15 -17
-8 -41 18 l-24 26 32 -19 c18 -10 33 -21 33 -25z m65 32 c3 -5 2 -10 -4 -10
-5 0 -13 5 -16 10 -3 6 -2 10 4 10 5 0 13 -4 16 -10z m-647 -802 c-6 -18 -28
-21 -28 -4 0 9 7 16 16 16 9 0 14 -5 12 -12z m-108 -48 c0 -5 -4 -10 -10 -10
-5 0 -10 5 -10 10 0 6 5 10 10 10 6 0 10 -4 10 -10z m1112 -132 c-7 -7 -12 -8
-12 -2 0 6 3 14 7 17 3 4 9 5 12 2 2 -3 -1 -11 -7 -17z m-809 -15 c-7 -2 -19
-2 -25 0 -7 3 -2 5 12 5 14 0 19 -2 13 -5z m115 -29 c14 -45 -6 -42 -25 4 -11
27 -11 32 0 32 8 0 19 -16 25 -36z m314 -57 l-10 -52 -1 70 c0 53 2 66 10 52
7 -12 7 -35 1 -70z m-702 44 c0 -5 9 -11 21 -14 27 -7 19 -33 -9 -29 -31 4
-28 -18 6 -45 15 -12 22 -22 17 -23 -6 0 -26 13 -45 30 -33 28 -34 30 -16 44
11 9 16 22 13 31 -4 8 -2 15 3 15 6 0 10 -4 10 -9z m90 -1 c0 -5 -4 -10 -10
-10 -5 0 -10 5 -10 10 0 6 5 10 10 10 6 0 10 -4 10 -10z m920 -40 c0 -5 -5
-10 -11 -10 -5 0 -7 5 -4 10 3 6 8 10 11 10 2 0 4 -4 4 -10z"/>
<path d="M4230 5590 c0 -5 5 -10 11 -10 5 0 7 5 4 10 -3 6 -8 10 -11 10 -2 0
-4 -4 -4 -10z"/>
<path d="M4264 5547 c-3 -9 -3 -21 1 -27 3 -5 1 -10 -4 -10 -15 0 -14 -53 1
-85 13 -29 21 -31 38 -10 10 12 10 22 3 38 -6 12 -11 38 -12 57 -2 40 -17 62
-27 37z"/>
<path d="M4229 5394 c-12 -32 -5 -42 16 -24 11 9 12 16 5 25 -5 6 -7 15 -3 18
3 4 3 7 -1 7 -3 0 -11 -12 -17 -26z"/>
<path d="M5520 5264 c0 -14 4 -23 10 -19 6 3 10 15 10 26 0 10 -4 19 -10 19
-5 0 -10 -12 -10 -26z"/>
<path d="M3645 4680 c3 -5 8 -10 11 -10 2 0 4 5 4 10 0 6 -5 10 -11 10 -5 0
-7 -4 -4 -10z"/>
<path d="M1611 4083 c-23 -86 -23 -93 -11 -93 7 0 18 8 25 17 10 13 32 18 89
21 l76 4 0 -186 c0 -173 -1 -187 -20 -206 -11 -11 -24 -20 -30 -20 -5 0 -10
-4 -10 -10 0 -6 40 -10 100 -10 96 0 131 12 75 26 -14 3 -30 14 -35 24 -6 10
-10 100 -10 199 l0 181 70 0 c59 0 72 -3 82 -20 24 -38 38 -24 38 40 0 62 -9
73 -36 45 -13 -12 -47 -15 -180 -15 -152 0 -165 2 -181 20 -24 28 -31 25 -42
-17z"/>
<path d="M2103 4093 c-27 -5 -27 -3 -8 -39 12 -23 15 -70 15 -221 0 -117 -4
-194 -10 -198 -5 -3 -10 -13 -10 -21 0 -10 13 -14 51 -14 45 0 50 2 43 18 -5
9 -10 55 -12 101 -3 75 -1 85 19 107 43 46 117 24 145 -42 19 -46 17 -93 -6
-139 -24 -47 -24 -45 -6 -45 19 0 74 85 82 126 16 88 -30 154 -115 162 -33 3
-59 -1 -82 -12 -17 -9 -34 -16 -37 -16 -3 0 -3 54 0 120 l5 120 -26 -1 c-14
-1 -36 -4 -48 -6z"/>
<path d="M3726 4091 c-61 -7 -73 -28 -19 -33 l38 -3 5 -97 5 -97 -56 6 c-94 9
-161 -38 -175 -124 -12 -77 30 -130 113 -146 27 -5 39 -1 69 25 29 26 37 29
45 17 5 -8 9 -20 9 -28 0 -10 8 -12 31 -7 17 3 38 6 45 6 19 0 18 20 -3 35
-14 11 -16 35 -14 201 1 104 4 204 7 222 7 36 7 36 -100 23z m-40 -261 c37
-13 53 -38 60 -95 6 -42 5 -45 -27 -64 -46 -28 -75 -26 -110 8 -47 47 -34 127
25 151 11 5 21 9 22 9 1 1 14 -4 30 -9z"/>
<path d="M4943 4093 c-26 -5 -29 -13 -10 -31 14 -15 17 -402 3 -439 -8 -22 -6
-23 44 -23 46 0 51 2 44 18 -5 9 -10 56 -12 103 -3 80 -1 89 19 108 52 48 139
7 154 -73 7 -37 -10 -122 -26 -132 -13 -8 -11 -24 4 -24 20 0 76 91 83 136 17
110 -99 191 -200 139 -15 -8 -31 -15 -33 -15 -3 0 -4 54 -1 120 l4 120 -25 -1
c-15 -1 -36 -4 -48 -6z"/>
<path d="M5773 4093 c-34 -4 -42 -20 -20 -42 9 -9 12 -65 12 -208 l0 -196 26
-19 c45 -34 97 -40 149 -17 79 35 120 88 120 154 0 83 -57 131 -144 122 -28
-3 -59 -9 -70 -13 -18 -7 -18 -2 -14 109 4 102 2 117 -11 115 -9 0 -31 -3 -48
-5z m192 -260 c24 -25 27 -33 23 -85 -7 -94 -70 -137 -129 -89 -21 17 -24 28
-24 86 0 61 3 69 28 91 37 31 68 30 102 -3z"/>
<path d="M4104 4016 c-10 -26 4 -48 28 -44 17 2 23 10 23 28 0 18 -6 26 -23
28 -13 2 -25 -3 -28 -12z"/>
<path d="M6774 4016 c-10 -26 4 -48 28 -44 17 2 23 10 23 28 0 18 -6 26 -23
28 -13 2 -25 -3 -28 -12z"/>
<path d="M7624 4015 c-10 -25 4 -45 30 -45 13 0 26 7 30 15 9 25 -5 45 -30 45
-14 0 -27 -7 -30 -15z"/>
<path d="M4738 3903 c-31 -47 -35 -59 -23 -66 12 -6 15 -30 15 -100 0 -116 11
-137 75 -137 51 0 75 8 75 24 0 7 -13 13 -31 13 -49 0 -60 24 -57 118 3 78 4
80 28 81 55 2 60 4 60 23 0 16 -8 20 -42 23 -42 3 -43 4 -46 41 -2 20 -6 37
-10 37 -4 0 -24 -26 -44 -57z"/>
<path d="M2512 3870 c-64 -29 -86 -94 -62 -182 22 -77 122 -114 208 -79 44 18
41 35 -4 27 -63 -12 -134 28 -134 77 0 7 41 33 90 57 50 24 90 49 90 55 -1 12
-108 66 -130 65 -8 0 -34 -9 -58 -20z m76 -42 c21 -21 13 -33 -33 -56 -43 -21
-45 -21 -45 -3 0 40 19 71 43 71 13 0 28 -5 35 -12z"/>
<path d="M2972 3870 c-31 -14 -47 -29 -57 -54 -30 -72 -10 -158 46 -199 32
-23 111 -27 157 -8 46 19 41 35 -8 27 -53 -8 -104 13 -125 53 l-15 31 95 47
c52 26 95 51 95 56 0 4 -8 11 -17 14 -10 4 -33 17 -52 30 -41 28 -63 28 -119
3z m76 -42 c21 -21 13 -33 -33 -56 l-45 -22 0 26 c0 54 45 85 78 52z"/>
<path d="M3220 3873 c-46 -20 -46 -20 -26 -42 15 -16 17 -34 13 -103 -2 -45
-7 -93 -12 -105 -7 -22 -5 -23 49 -23 53 0 56 1 46 19 -14 28 -13 194 2 209
17 17 74 15 93 -4 13 -14 16 -33 13 -103 -2 -47 -7 -94 -12 -103 -7 -16 -2
-18 49 -18 51 0 56 2 49 18 -4 9 -10 66 -13 125 -5 99 -8 111 -30 128 -30 24
-77 24 -123 0 -36 -20 -36 -20 -41 0 -6 22 -10 22 -57 2z"/>
<path d="M4115 3883 c-47 -10 -49 -12 -30 -33 15 -17 17 -35 13 -135 l-4 -115
47 0 c52 0 67 11 44 30 -12 10 -15 39 -15 136 0 134 2 130 -55 117z"/>
<path d="M4281 3865 c-65 -55 -25 -135 74 -149 43 -7 85 -34 85 -55 0 -17 -31
-41 -51 -41 -36 0 -80 31 -95 66 -8 19 -18 34 -22 34 -10 0 -35 -101 -27 -108
3 -3 10 -1 16 5 6 6 28 4 65 -9 45 -15 62 -17 89 -8 46 15 69 44 68 86 -1 46
-23 69 -81 84 -100 26 -112 31 -112 50 0 43 66 47 122 9 14 -11 30 -19 36 -19
10 0 36 55 31 66 -2 3 -40 8 -85 11 -76 4 -83 3 -113 -22z"/>
<path d="M5352 3870 c-48 -22 -72 -64 -72 -125 0 -112 85 -172 198 -139 62 18
71 40 12 30 -53 -8 -104 13 -125 53 l-15 31 95 47 c52 26 95 52 95 58 -1 12
-108 66 -130 65 -8 0 -34 -9 -58 -20z m76 -42 c21 -21 13 -33 -33 -56 l-45
-22 0 26 c0 54 45 85 78 52z"/>
<path d="M6162 3870 c-54 -25 -77 -72 -68 -144 10 -85 54 -128 134 -129 51 -1
112 18 112 35 0 6 -14 8 -36 4 -63 -12 -134 28 -134 77 0 7 41 33 90 57 50 24
90 49 90 55 -1 12 -108 66 -130 65 -8 0 -34 -9 -58 -20z m76 -42 c21 -21 13
-33 -33 -56 l-45 -22 0 26 c0 54 45 85 78 52z"/>
<path d="M6455 3875 c-44 -23 -65 -53 -65 -92 0 -44 24 -85 64 -109 29 -18 30
-19 9 -22 -30 -4 -29 -30 1 -44 44 -19 39 -36 -12 -44 -59 -8 -82 -28 -82 -69
0 -59 64 -95 170 -95 116 1 193 69 164 145 -10 24 -58 45 -107 45 -53 0 -103
32 -77 50 8 5 29 10 45 10 44 0 94 35 111 77 14 32 14 41 1 75 -15 38 -15 38
9 38 17 0 24 6 24 19 0 16 -11 19 -82 24 -119 10 -139 9 -173 -8z m145 -65
c27 -27 26 -77 -2 -107 -24 -26 -82 -31 -110 -9 -39 29 -39 94 -1 124 26 19
90 15 113 -8z m40 -275 c28 -25 22 -63 -13 -89 -22 -16 -43 -21 -88 -21 -51 1
-63 5 -86 27 -24 24 -25 30 -15 53 7 14 27 33 45 41 43 19 130 13 157 -11z"/>
<path d="M6778 3883 c-29 -5 -36 -21 -17 -40 7 -7 10 -51 8 -127 l-4 -116 47
0 c51 0 66 11 43 30 -12 10 -15 39 -15 136 0 136 5 127 -62 117z"/>
<path d="M6950 3869 c-41 -19 -44 -22 -27 -34 16 -11 18 -25 15 -107 -2 -51
-7 -101 -12 -110 -7 -16 -2 -18 48 -18 52 0 70 10 46 25 -6 3 -10 48 -10 100
0 83 2 96 19 105 28 15 77 12 91 -5 13 -15 16 -144 5 -196 l-7 -29 52 0 c46 0
51 2 44 18 -5 9 -10 65 -12 124 -3 102 -5 109 -29 128 -33 25 -73 25 -123 0
-33 -17 -40 -18 -40 -6 0 25 -14 26 -60 5z"/>
<path d="M7290 3869 c-41 -19 -44 -22 -27 -34 16 -11 18 -25 15 -107 -2 -51
-7 -101 -12 -110 -7 -16 -2 -18 48 -18 52 0 70 10 46 25 -6 3 -10 48 -10 100
0 83 2 96 19 105 28 15 77 12 91 -5 13 -16 17 -141 5 -194 l-7 -31 52 0 c46 0
51 2 44 18 -5 9 -10 65 -12 124 -3 102 -5 109 -29 128 -33 25 -73 25 -123 0
-33 -17 -40 -18 -40 -6 0 25 -14 26 -60 5z"/>
<path d="M7628 3883 c-26 -4 -41 -33 -17 -33 7 0 10 -40 7 -125 l-3 -125 53 0
c53 0 63 8 37 30 -12 10 -15 38 -15 136 0 136 5 127 -62 117z"/>
<path d="M7806 3874 c-51 -18 -52 -20 -32 -43 15 -16 17 -34 13 -103 -2 -45
-7 -93 -12 -105 -7 -22 -5 -23 44 -23 l51 0 -8 48 c-11 73 -8 158 7 176 17 21
75 21 96 0 13 -14 16 -33 13 -103 -2 -47 -7 -94 -12 -103 -7 -16 -2 -18 49
-18 51 0 56 2 49 18 -4 9 -10 65 -13 124 -5 79 -10 112 -22 123 -24 25 -80 29
-124 10 -45 -18 -50 -19 -50 -6 0 18 -10 18 -49 5z"/>
<path d="M8190 3879 c-93 -38 -103 -150 -19 -197 34 -20 36 -28 9 -35 -28 -7
-25 -19 10 -39 40 -23 38 -36 -7 -43 -62 -11 -69 -14 -83 -40 -21 -39 -3 -76
50 -103 85 -44 255 -15 275 48 3 10 16 22 28 26 39 11 87 54 108 96 26 51 19
70 -23 66 -30 -3 -33 -6 -30 -35 2 -23 -5 -40 -28 -67 l-32 -36 -33 35 c-28
30 -39 35 -79 35 -26 0 -61 7 -78 16 -30 16 -31 17 -13 30 10 8 30 14 43 14
39 0 92 30 108 63 15 29 15 74 -1 110 -5 13 -2 17 14 17 19 0 40 25 30 34 -11
10 -227 15 -249 5z m140 -76 c61 -78 -55 -169 -125 -98 -52 52 -16 125 61 125
34 0 47 -5 64 -27z m20 -258 c61 -31 43 -95 -32 -116 -97 -26 -190 28 -150 87
26 40 129 56 182 29z"/>
<path d="M2557 3390 c-48 -9 -52 -13 -32 -43 13 -21 15 -53 12 -218 -1 -107
-7 -204 -11 -216 -8 -22 -6 -23 43 -23 38 0 51 4 51 14 0 8 -4 18 -10 21 -5 3
-10 44 -10 91 0 100 15 124 79 124 32 0 44 -6 65 -31 42 -50 47 -111 12 -179
-20 -42 -3 -46 30 -8 73 87 70 196 -5 241 -37 21 -112 22 -153 1 l-31 -16 6
121 c3 67 2 122 -1 124 -4 2 -24 0 -45 -3z"/>
<path d="M7137 3390 c-48 -9 -50 -11 -32 -48 13 -25 15 -64 12 -219 -1 -103
-7 -198 -11 -210 -8 -22 -6 -23 43 -23 38 0 51 4 51 14 0 8 -4 18 -10 21 -5 3
-10 44 -10 91 0 71 3 87 20 104 28 28 90 27 118 -2 45 -49 53 -108 22 -175
-24 -53 -11 -64 26 -21 67 81 71 169 10 225 -31 28 -43 33 -86 33 -28 0 -65
-7 -82 -16 l-31 -16 5 121 c3 67 2 123 -1 125 -3 1 -23 -1 -44 -4z"/>
<path d="M1928 3383 c-21 -2 -38 -8 -38 -13 0 -4 17 -12 38 -17 l37 -9 3 -95
3 -95 -63 4 c-70 3 -112 -15 -143 -62 -43 -66 -23 -165 39 -191 53 -22 84 -18
127 16 33 26 39 28 39 12 0 -38 14 -45 59 -33 47 12 49 18 20 44 -20 17 -21
23 -15 199 4 100 9 197 12 215 l5 32 -43 -2 c-24 -1 -60 -3 -80 -5z m-14 -264
c25 -12 56 -72 56 -107 0 -10 -11 -29 -25 -42 -57 -54 -145 -13 -145 66 0 74
51 111 114 83z"/>
<path d="M3353 3383 c-27 -5 -27 -3 -8 -39 13 -24 15 -65 14 -215 -1 -102 1
-191 4 -196 12 -19 75 -43 114 -43 46 0 119 42 151 88 16 21 22 45 22 82 0 46
-4 56 -35 87 l-36 36 -81 -6 -81 -7 6 110 6 110 -27 -1 c-15 -1 -37 -4 -49 -6z
m194 -248 c48 -34 48 -135 0 -183 -21 -21 -31 -24 -62 -18 -29 6 -39 14 -51
41 -45 110 31 217 113 160z"/>
<path d="M8730 3383 c-51 -6 -59 -20 -16 -28 20 -4 41 -16 46 -26 6 -10 10
-54 10 -97 l0 -80 -58 5 c-107 10 -172 -45 -172 -143 0 -56 17 -87 60 -109 45
-23 93 -19 120 10 13 14 29 25 37 25 7 0 13 -11 13 -25 0 -28 8 -30 63 -14 42
11 46 19 16 37 -21 13 -21 18 -17 233 l4 219 -36 -2 c-19 0 -51 -3 -70 -5z
m-4 -277 c24 -20 28 -31 29 -77 0 -52 -1 -54 -36 -73 -32 -17 -40 -18 -68 -6
-65 26 -78 117 -24 160 34 26 66 25 99 -4z"/>
<path d="M4370 3315 c-17 -21 -8 -50 17 -53 30 -4 49 31 27 52 -19 20 -28 20
-44 1z"/>
<path d="M5220 3316 c-27 -33 18 -72 48 -42 13 13 14 20 6 34 -15 23 -38 26
-54 8z"/>
<path d="M6280 3316 c-27 -33 18 -72 48 -42 13 13 14 20 6 34 -15 23 -38 26
-54 8z"/>
<path d="M2333 3200 c-34 -52 -40 -70 -23 -70 6 0 10 -38 10 -94 0 -79 3 -97
21 -120 22 -28 65 -34 114 -16 35 13 23 30 -21 30 -44 0 -54 23 -54 126 l0 74
45 0 c41 0 45 2 45 25 0 23 -4 25 -45 25 -45 0 -45 0 -45 35 0 19 -3 35 -7 35
-5 0 -23 -23 -40 -50z"/>
<path d="M6913 3204 c-33 -44 -42 -74 -23 -74 6 0 10 -39 10 -98 0 -90 2 -100
23 -120 23 -22 61 -27 105 -16 36 10 27 34 -13 34 -45 0 -55 23 -55 126 l0 74
45 0 c41 0 45 2 45 25 0 23 -4 25 -45 25 -45 0 -45 0 -45 35 0 19 -3 35 -7 34
-5 0 -23 -20 -40 -45z"/>
<path d="M1203 3164 c-17 -9 -40 -25 -50 -36 -18 -21 -18 -21 7 -13 80 24 130
14 130 -25 0 -14 -17 -24 -65 -40 -75 -25 -110 -60 -100 -100 15 -61 71 -78
133 -40 l34 21 5 -21 c5 -17 12 -21 42 -18 27 2 35 7 31 18 -2 8 -7 66 -10
128 -4 97 -8 116 -24 128 -26 18 -93 17 -133 -2z m97 -143 c0 -41 -36 -83 -68
-79 -33 4 -51 32 -36 56 11 18 70 52 92 52 7 0 12 -12 12 -29z"/>
<path d="M1443 3167 c-44 -17 -49 -24 -28 -47 15 -16 17 -32 12 -102 -3 -46
-8 -93 -12 -105 -7 -22 -5 -23 45 -23 50 0 52 1 45 23 -4 12 -9 58 -12 103 -5
79 -5 81 23 103 31 25 70 22 92 -7 14 -19 13 -173 -2 -204 -7 -16 -2 -18 49
-18 51 0 56 2 49 18 -4 9 -10 66 -13 125 -5 99 -8 111 -30 128 -28 23 -85 24
-121 4 -33 -19 -50 -19 -50 0 0 17 -4 18 -47 2z"/>
<path d="M2937 3159 c-65 -35 -84 -115 -48 -196 23 -50 62 -73 126 -73 45 0
105 22 105 39 0 5 -15 6 -32 2 -42 -10 -84 2 -114 30 -42 39 -32 55 63 102 81
40 114 67 80 67 -8 0 -26 9 -41 21 -38 30 -93 34 -139 8z m77 -38 c22 -24 16
-36 -35 -61 l-39 -20 0 28 c0 31 25 72 44 72 7 0 21 -9 30 -19z"/>
<path d="M3754 3160 c-49 -25 -64 -53 -64 -124 0 -59 28 -112 70 -133 34 -17
103 -16 146 2 43 18 37 36 -8 26 -18 -4 -47 -4 -65 1 -31 8 -73 50 -73 72 0 7
41 32 91 56 50 25 93 48 95 52 7 10 -101 68 -127 68 -13 0 -42 -9 -65 -20z
m65 -30 c36 -19 33 -39 -9 -60 -22 -11 -44 -20 -50 -20 -14 0 -2 50 18 73 18
20 18 20 41 7z"/>
<path d="M4043 3165 c-56 -24 -81 -105 -47 -154 9 -12 30 -31 48 -42 30 -19
30 -19 9 -25 -32 -9 -29 -26 8 -46 38 -22 31 -34 -24 -43 -53 -9 -77 -30 -77
-67 0 -75 126 -120 244 -87 129 36 128 179 -1 179 -45 0 -103 23 -103 40 0 5
12 12 28 15 74 16 103 28 122 52 30 39 35 70 17 109 -17 34 -17 34 8 34 20 0
25 5 25 25 l0 25 -112 0 c-74 -1 -124 -6 -145 -15z m149 -62 c29 -26 24 -87
-8 -112 -53 -42 -134 -11 -134 50 0 60 37 93 94 84 16 -3 38 -13 48 -22z m29
-269 c25 -13 30 -20 27 -46 -4 -46 -44 -71 -110 -71 -59 0 -92 13 -108 43 -34
64 106 119 191 74z"/>
<path d="M4358 3173 c-21 -5 -23 -14 -7 -30 7 -7 10 -52 8 -132 l-4 -121 47 0
c49 0 72 16 44 32 -13 8 -16 28 -16 133 l0 125 -27 -1 c-16 -1 -36 -3 -45 -6z"/>
<path d="M4543 3164 c-35 -15 -40 -23 -22 -41 12 -12 8 -188 -5 -215 -7 -16
-2 -18 49 -18 51 0 56 2 49 18 -5 9 -10 59 -12 109 l-3 93 35 16 c32 16 37 16
60 1 38 -25 44 -87 20 -209 -6 -28 -5 -28 46 -28 50 0 52 1 45 23 -4 12 -9 63
-12 112 -2 50 -6 99 -8 111 -9 40 -95 58 -145 29 -32 -18 -40 -18 -40 0 0 18
-15 18 -57 -1z"/>
<path d="M4883 3164 c-35 -15 -40 -23 -22 -41 12 -12 8 -188 -5 -215 -7 -16
-2 -18 49 -18 51 0 56 2 49 18 -15 31 -17 197 -2 209 27 23 63 25 89 5 21 -18
24 -28 24 -84 0 -34 -3 -82 -8 -105 l-7 -43 51 0 c49 0 51 1 44 23 -4 12 -9
63 -12 112 -2 50 -6 99 -8 111 -9 40 -95 58 -145 29 -32 -18 -40 -18 -40 0 0
18 -15 18 -57 -1z"/>
<path d="M5208 3173 c-21 -5 -23 -14 -7 -30 7 -7 10 -54 7 -132 l-3 -121 47 0
c53 0 67 12 43 37 -14 13 -16 35 -13 135 l3 118 -30 -1 c-16 -1 -38 -3 -47 -6z"/>
<path d="M5390 3163 c-46 -20 -47 -21 -26 -36 15 -11 17 -26 13 -102 -2 -50
-7 -100 -12 -112 -7 -22 -5 -23 50 -23 51 0 56 2 49 18 -5 9 -9 60 -9 112 l0
95 29 14 c26 12 33 12 55 0 25 -14 26 -18 26 -109 0 -52 -2 -102 -5 -110 -4
-12 6 -16 48 -18 41 -2 52 0 52 12 0 8 -4 18 -10 21 -6 3 -10 52 -10 110 0
100 -1 104 -26 124 -32 25 -83 27 -126 5 -28 -15 -32 -15 -40 0 -11 19 -13 19
-58 -1z"/>
<path d="M5780 3173 c-28 -10 -69 -56 -75 -83 -9 -39 17 -94 54 -116 37 -22
39 -30 9 -38 -23 -6 -22 -7 10 -34 36 -30 40 -42 15 -42 -10 0 -35 -5 -56 -11
-72 -20 -71 -100 1 -136 51 -25 173 -25 225 1 67 33 86 100 41 141 -21 20 -38
25 -76 25 -47 0 -108 24 -108 42 0 4 12 10 28 13 76 16 103 28 127 57 27 32
31 75 11 120 -6 12 -2 17 16 20 15 2 23 10 23 23 0 19 -7 20 -115 22 -63 1
-122 -1 -130 -4z m106 -53 c57 -22 72 -83 29 -125 -49 -50 -145 -17 -145 50 0
29 49 85 74 85 8 0 27 -5 42 -10z m70 -293 c54 -46 2 -108 -91 -109 -81 -2
-126 32 -110 83 16 50 152 67 201 26z"/>
<path d="M6268 3173 c-21 -5 -23 -14 -5 -32 13 -13 15 -178 3 -226 -6 -24 -5
-25 43 -25 56 0 70 12 46 37 -14 13 -16 35 -13 135 l3 118 -30 -1 c-16 -1 -38
-3 -47 -6z"/>
<path d="M6465 3168 c-30 -17 -44 -40 -45 -71 0 -40 37 -73 100 -86 85 -18
113 -55 65 -87 -38 -25 -104 8 -126 64 -13 35 -25 26 -37 -29 -13 -57 -10 -68
12 -50 11 10 21 9 45 -3 80 -42 175 -4 175 69 0 49 -35 80 -107 95 -70 14 -96
32 -81 57 17 28 64 28 107 -2 21 -14 41 -25 46 -25 6 0 41 62 41 73 0 9 -179
4 -195 -5z"/>
<path d="M7524 3161 c-52 -24 -68 -60 -62 -141 4 -52 9 -66 35 -92 39 -39 116
-49 177 -24 47 20 39 36 -13 26 -25 -4 -50 -2 -69 5 -29 13 -62 50 -62 70 0 6
41 31 90 55 50 24 90 49 90 55 0 14 -95 65 -123 65 -12 0 -40 -9 -63 -19z m67
-31 c32 -18 23 -45 -21 -65 -22 -10 -43 -15 -46 -12 -3 3 -1 21 6 41 9 29 19
40 38 45 2 1 12 -4 23 -9z"/>
<path d="M7983 3161 c-52 -24 -66 -51 -66 -122 0 -95 49 -149 137 -149 51 0
121 24 112 39 -3 5 -21 6 -38 2 -18 -4 -47 -4 -65 1 -31 8 -73 50 -73 72 0 7
41 32 90 56 50 24 90 49 90 55 0 14 -95 65 -123 65 -12 0 -41 -9 -64 -19z m71
-37 c9 -8 16 -21 16 -28 0 -12 -60 -46 -82 -46 -16 0 -1 63 19 78 22 16 28 15
47 -4z"/>
<path d="M8233 3164 c-35 -15 -40 -23 -22 -41 12 -12 8 -188 -5 -215 -7 -16
-2 -18 49 -18 51 0 56 2 49 18 -5 9 -10 59 -12 109 l-3 93 35 16 c32 16 37 16
60 1 38 -25 46 -117 20 -214 -6 -22 -3 -23 46 -23 50 0 52 1 45 23 -4 12 -9
63 -12 112 -2 50 -6 99 -8 111 -9 40 -95 58 -145 29 -32 -18 -40 -18 -40 0 0
18 -15 18 -57 -1z"/>
</g>
</svg>
